<?xml version="1.0" encoding="utf-8"?>
<svg viewBox="0 0 500 500" xmlns="http://www.w3.org/2000/svg" xmlns:bx="https://boxy-svg.com">
  <rect x="150" y="250" width="100" height="200" style="fill: rgb(115, 111, 250);"/>
  <path style="fill: rgb(115, 111, 250);" transform="matrix(0.403203, 0, 0, 0.403203, 146.511078, 111.970291)" d="M 8.653 342.333 A 248.014 248.014 0 0 1 256.667 94.319 L 256.667 342.333 Z" bx:shape="pie 256.667 342.333 0 248.014 270 360 1@b9a73745"/>
  <path d="M 276.115 218.637 L 476.115 418.637 L 276.115 418.637 L 276.115 218.637 Z" style="fill: rgb(115, 111, 250);" transform="matrix(-0.000086, 1, -1, -0.000086, 668.677917, -26.082752)" bx:shape="triangle 276.115 218.637 200 200 0 0 1@d50c9621"/>
  <rect y="249" width="500" height="2" style=""/>
  <rect x="249" width="2" height="500" style=""/>
  <rect x="449" y="245" width="2" height="10" style=""/>
  <rect x="349" y="245" width="2" height="10" style=""/>
  <rect x="149" y="245" width="2" height="10" style=""/>
  <rect x="49" y="245" width="2" height="10" style=""/>
  <rect x="235.827" y="132.158" width="2" height="10" style="" transform="matrix(0, 1, -1, 0, 387.15802, -86.826996)"/>
  <rect x="235.827" y="132.158" width="2" height="10" style="" transform="matrix(0, 1, -1, 0, 387.192413, -186.826996)"/>
  <rect x="235.827" y="132.158" width="2" height="10" style="" transform="matrix(0, 1, -1, 0, 387.15802, 113.173004)"/>
  <rect x="235.827" y="132.158" width="2" height="10" style="" transform="matrix(0, 1, -1, 0, 387.15802, 213.173004)"/>
  <text style="white-space: pre; fill: rgb(51, 51, 51); font-family: Arial, sans-serif; font-size: 15.9px;" x="443.488" y="236.492">R</text>
  <text style="white-space: pre; fill: rgb(51, 51, 51); font-family: Arial, sans-serif; font-size: 15.9px;" x="348.212" y="228.553">R/2</text>
  <text style="white-space: pre; fill: rgb(51, 51, 51); font-family: Arial, sans-serif; font-size: 15.9px;" x="261.443" y="154.828">R/2</text>
  <text style="white-space: pre; fill: rgb(51, 51, 51); font-family: Arial, sans-serif; font-size: 15.9px;" x="260.877" y="55.015">R</text>
  <text style="white-space: pre; fill: rgb(51, 51, 51); font-family: Arial, sans-serif; font-size: 15.9px;" x="262.011" y="354.453">-R/2</text>
  <text style="white-space: pre; fill: rgb(51, 51, 51); font-family: Arial, sans-serif; font-size: 15.9px;" x="261.443" y="455.211">-R</text>
  <text style="white-space: pre; fill: rgb(51, 51, 51); font-family: Arial, sans-serif; font-size: 15.9px;" x="118.529" y="240.274">-R/2</text>
  <text style="white-space: pre; fill: rgb(51, 51, 51); font-family: Arial, sans-serif; font-size: 15.9px;" x="42.536" y="232.901">-R</text>
</svg>